<svg version="1.1" preserveAspectRatio="none" xmlns="http://www.w3.org/2000/svg" width="500" height="500" viewBox="0 0 500 500"><rect width="100%" height="100%" fill="#FFFFFF" fill-opacity="1"/><svg viewBox="-48.6325 132.551 507.0291 100" width="333" height="65.67670376315678" x="83.5px" y="217.1616px" xmlns="http://www.w3.org/2000/svg" xmlns:xlink="http://www.w3.org/1999/xlink" preserveAspectRatio="none"><defs></defs><style>.background {fill:#FFFFFF;fill-opacity:1;}.companyName {fill:#0C0C0C;fill-opacity:1;}.icon3 {fill:#6F5CF3;fill-opacity:1;}.icon3-str {stroke:#6F5CF3;stroke-opacity:1;}.shape {fill:#F55649;fill-opacity:1;}.text-str {stroke:#0C0C0C;stroke-opacity:1;}</style><g opacity="1" transform="rotate(0 54.3674 132.551)">
<svg width="404.0292" height="100" x="54.3674" y="132.551" version="1.1" preserveAspectRatio="none" viewBox="0 0 404.0292 100">
  <defs><rect x="0" y="0" width="404.0292" height="100" rx="0px" ry="0px" id="id-B7crM0kCi1683174239841"></rect></defs><use class="companyName text-str" style="stroke-width:0;" xlink:href="#id-B7crM0kCi1683174239841"></use>
</svg>
</g><g opacity="1" transform="rotate(0 84.3674 162.551)">
<svg width="344.0292" height="40" x="84.3674" y="162.551" version="1.1" preserveAspectRatio="none" viewBox="0 -32.4023 367.7149 42.753899999999994">
  <g transform="matrix(1 0 0 1 0 0)" class="background"><path id="id-D6z1nYkh13" d="M17.62 0L17.62-30.53L33.71-30.53Q37.23-30.53 39.80-29.77Q42.38-29.00 44.08-27.57Q45.78-26.13 46.61-24.06Q47.44-21.99 47.44-19.39L47.44-19.39Q47.44-16.95 46.62-14.88Q45.80-12.81 44.11-11.30Q42.42-9.79 39.84-8.94Q37.27-8.09 33.75-8.09L33.75-8.09L23.81-8.11L23.81 0L17.62 0ZM23.81-13.46L33.87-13.46Q35.63-13.46 36.94-13.88Q38.26-14.30 39.15-15.07Q40.04-15.84 40.48-16.94Q40.92-18.05 40.92-19.39L40.92-19.39Q40.92-22.11 39.15-23.62Q37.38-25.14 33.87-25.14L33.87-25.14L23.81-25.14L23.81-13.46Z M52.38-7.27L52.38-7.27Q52.38-8.93 53.11-10.29Q53.83-11.66 55.27-12.65Q56.72-13.63 58.88-14.17Q61.04-14.71 63.91-14.71L63.91-14.71Q66.04-14.71 68.39-14.39Q70.74-14.08 73.24-13.44L73.24-13.44Q73.14-14.53 72.58-15.46Q72.01-16.39 71.01-17.06Q70-17.73 68.58-18.11Q67.17-18.48 65.37-18.48L65.37-18.48Q64.39-18.48 63.22-18.36Q62.05-18.24 60.80-18.01Q59.55-17.77 58.33-17.42Q57.11-17.07 56.05-16.58L56.05-16.58L54.30-21.33Q55.61-21.80 57.10-22.19Q58.59-22.58 60.16-22.86Q61.72-23.14 63.28-23.30Q64.84-23.46 66.31-23.46L66.31-23.46Q72.77-23.46 75.92-20.16Q79.06-16.86 79.06-10.04L79.06-10.04L79.06 0L73.28 0L73.28-2.17Q72.38-1.64 71.32-1.17Q70.25-0.70 69.00-0.35Q67.75 0 66.32 0.21Q64.88 0.41 63.28 0.41L63.28 0.41Q60.59 0.41 58.54-0.18Q56.50-0.76 55.14-1.80Q53.77-2.83 53.08-4.23Q52.38-5.63 52.38-7.27ZM58.48-7.46L58.48-7.46Q58.48-6.89 58.77-6.38Q59.06-5.86 59.71-5.46Q60.35-5.06 61.36-4.81Q62.36-4.57 63.79-4.57L63.79-4.57Q65.31-4.57 66.74-4.84Q68.16-5.12 69.39-5.57Q70.63-6.02 71.62-6.60Q72.62-7.19 73.28-7.81L73.28-7.81L73.28-8.83Q71.95-9.20 70.65-9.45Q69.36-9.71 68.17-9.85Q66.99-10 65.95-10.06Q64.90-10.12 64.12-10.12L64.12-10.12Q62.50-10.12 61.43-9.90Q60.35-9.69 59.69-9.33Q59.02-8.96 58.75-8.48Q58.48-7.99 58.48-7.46Z M86.70 0L86.70-23.05L92.48-23.05L92.48-19.73Q94.39-21.15 96.52-22.19Q98.65-23.22 100.76-23.77L100.76-23.77L102.46-18.48Q99.12-18.14 96.59-16.98Q94.06-15.82 92.48-13.71L92.48-13.71L92.48 0L86.70 0Z M106.78 0L106.78-32.40L112.56-32.40L112.56-13.26L123.34-23.05L132.19-23.05L120.14-12.27L132.95 0L124.28 0L115.70-8.30L112.56-5.49L112.56 0L106.78 0Z M139.80-26.19L139.80-26.19Q138.95-26.19 138.25-26.44Q137.56-26.68 137.07-27.10Q136.58-27.52 136.32-28.08Q136.05-28.63 136.05-29.26L136.05-29.26Q136.05-29.90 136.32-30.46Q136.58-31.02 137.07-31.43Q137.56-31.84 138.25-32.08Q138.95-32.32 139.80-32.32L139.80-32.32Q140.68-32.32 141.38-32.08Q142.07-31.84 142.56-31.43Q143.05-31.02 143.31-30.46Q143.57-29.90 143.57-29.26L143.57-29.26Q143.57-28.63 143.31-28.08Q143.05-27.52 142.56-27.10Q142.07-26.68 141.38-26.44Q140.68-26.19 139.80-26.19ZM136.91 0L136.91-23.05L142.70-23.05L142.70 0L136.91 0Z M150.10 0L150.10-23.05L155.88-23.05L155.88-21.09Q158.18-22.40 160.28-22.93Q162.38-23.46 164.39-23.46L164.39-23.46Q167.03-23.46 169.28-22.69Q171.52-21.91 173.16-20.39Q174.80-18.87 175.73-16.59Q176.66-14.32 176.66-11.33L176.66-11.33L176.66 0L170.90 0L170.90-10.39Q170.90-12.29 170.36-13.78Q169.82-15.27 168.82-16.30Q167.81-17.32 166.38-17.86Q164.94-18.40 163.16-18.40L163.16-18.40Q162.23-18.40 161.24-18.20Q160.25-18.01 159.31-17.65Q158.36-17.29 157.48-16.75Q156.60-16.21 155.88-15.53L155.88-15.53L155.88 0L150.10 0Z M185.21 8.79L187.36 3.91Q188.46 4.30 189.59 4.56Q190.72 4.82 191.79 4.99Q192.85 5.16 193.83 5.22Q194.80 5.29 195.57 5.29L195.57 5.29Q197.87 5.29 199.58 4.74Q201.29 4.18 202.43 3.24Q203.57 2.30 204.14 1.06Q204.71-0.18 204.71-1.56L204.71-1.56L204.71-2.56Q203.96-2.05 202.97-1.58Q201.97-1.11 200.78-0.76Q199.59-0.41 198.25-0.20Q196.91 0.02 195.49 0.02L195.49 0.02Q192.66 0.02 190.25-0.83Q187.85-1.68 186.09-3.21Q184.34-4.75 183.35-6.89Q182.36-9.04 182.36-11.66L182.36-11.66Q182.36-14.34 183.40-16.51Q184.43-18.69 186.26-20.23Q188.09-21.78 190.59-22.62Q193.09-23.46 196.02-23.46L196.02-23.46Q197.27-23.46 198.50-23.30Q199.73-23.14 200.85-22.87Q201.97-22.60 202.96-22.22Q203.95-21.84 204.71-21.39L204.71-21.39L204.71-23.05L210.49-23.05L210.49-2.64Q210.49 0.51 209.53 2.93Q208.57 5.35 206.73 7.00Q204.88 8.65 202.15 9.50Q199.41 10.35 195.88 10.35L195.88 10.35Q194.61 10.35 193.24 10.24Q191.88 10.14 190.50 9.93Q189.12 9.73 187.78 9.44Q186.45 9.16 185.21 8.79L185.21 8.79ZM188.44-11.72L188.44-11.72Q188.44-10.33 188.99-9.11Q189.55-7.89 190.59-6.98Q191.62-6.07 193.09-5.56Q194.55-5.04 196.39-5.04L196.39-5.04Q197.58-5.04 198.76-5.26Q199.94-5.49 201.03-5.90Q202.11-6.31 203.06-6.89Q204.00-7.48 204.71-8.20L204.71-8.20L204.71-15.80Q203.83-16.50 202.85-16.99Q201.88-17.48 200.86-17.79Q199.84-18.11 198.81-18.25Q197.77-18.40 196.80-18.40L196.80-18.40Q194.80-18.40 193.25-17.87Q191.70-17.34 190.63-16.44Q189.57-15.53 189.00-14.32Q188.44-13.11 188.44-11.72Z M216.13-13.36L216.13-17.70L234.04-17.70L234.04-13.36L216.13-13.36Z M238.18 0L255.10-21.68L258.03-25.25L239.69-25.25L239.69-30.53L269.55-30.53L252.46-9.06L249.41-5.27L268.59-5.27L268.59 0L238.18 0Z M272.34-11.52L272.34-11.52Q272.34-14.00 273.35-16.17Q274.36-18.34 276.22-19.96Q278.09-21.58 280.73-22.52Q283.38-23.46 286.68-23.46L286.68-23.46Q289.98-23.46 292.63-22.52Q295.27-21.58 297.14-19.96Q299.00-18.34 300.01-16.17Q301.02-14.00 301.02-11.52L301.02-11.52Q301.02-9.04 300.01-6.88Q299.00-4.71 297.14-3.09Q295.27-1.46 292.63-0.53Q289.98 0.41 286.68 0.41L286.68 0.41Q283.38 0.41 280.73-0.53Q278.09-1.46 276.22-3.09Q274.36-4.71 273.35-6.88Q272.34-9.04 272.34-11.52ZM278.42-11.52L278.42-11.52Q278.42-10.14 278.97-8.90Q279.53-7.66 280.60-6.71Q281.66-5.76 283.19-5.21Q284.73-4.65 286.68-4.65L286.68-4.65Q288.63-4.65 290.17-5.21Q291.70-5.76 292.76-6.71Q293.83-7.66 294.38-8.90Q294.94-10.14 294.94-11.52L294.94-11.52Q294.94-12.91 294.38-14.16Q293.83-15.41 292.76-16.36Q291.70-17.30 290.17-17.86Q288.63-18.42 286.68-18.42L286.68-18.42Q284.73-18.42 283.19-17.86Q281.66-17.30 280.60-16.36Q279.53-15.41 278.97-14.16Q278.42-12.91 278.42-11.52Z M306.86 0L306.86-23.05L312.64-23.05L312.64-21.09Q314.94-22.40 317.04-22.93Q319.14-23.46 321.15-23.46L321.15-23.46Q323.79-23.46 326.04-22.69Q328.28-21.91 329.92-20.39Q331.56-18.87 332.49-16.59Q333.42-14.32 333.42-11.33L333.42-11.33L333.42 0L327.66 0L327.66-10.39Q327.66-12.29 327.12-13.78Q326.58-15.27 325.58-16.30Q324.57-17.32 323.13-17.86Q321.70-18.40 319.92-18.40L319.92-18.40Q318.98-18.40 318.00-18.20Q317.01-18.01 316.06-17.65Q315.12-17.29 314.24-16.75Q313.36-16.21 312.64-15.53L312.64-15.53L312.64 0L306.86 0Z M339.41-11.60L339.41-11.60Q339.41-13.95 340.37-16.08Q341.33-18.22 343.13-19.86Q344.92-21.50 347.53-22.48Q350.14-23.46 353.46-23.46L353.46-23.46Q356.76-23.46 359.40-22.47Q362.05-21.48 363.90-19.77Q365.74-18.05 366.73-15.72Q367.71-13.40 367.71-10.74L367.71-10.74Q367.71-10.41 367.71-10.03Q367.70-9.65 367.66-9.34L367.66-9.34L345.86-9.34Q346.23-8.30 347.06-7.44Q347.89-6.58 349.14-5.96Q350.39-5.33 352.03-4.99Q353.67-4.65 355.66-4.65L355.66-4.65Q357.66-4.65 359.63-5.07Q361.60-5.49 363.40-6.13L363.40-6.13L365.35-1.72Q364.22-1.19 363.06-0.79Q361.89-0.39 360.63-0.13Q359.38 0.14 358.00 0.27Q356.62 0.41 355.10 0.41L355.10 0.41Q351.21 0.41 348.28-0.53Q345.35-1.46 343.38-3.09Q341.41-4.71 340.41-6.89Q339.41-9.08 339.41-11.60ZM345.86-13.85L361.58-13.85Q361.27-14.80 360.62-15.63Q359.96-16.46 358.98-17.08Q358.01-17.70 356.72-18.05Q355.43-18.40 353.89-18.40L353.89-18.40Q352.25-18.40 350.90-18.03Q349.55-17.66 348.54-17.03Q347.52-16.41 346.85-15.59Q346.17-14.77 345.86-13.85L345.86-13.85Z"/></g>
</svg>
</g><g opacity="1" transform="rotate(0 -48.6325 132.551)">
<svg width="99.9999" height="100" x="-48.6325" y="132.551" version="1.1" preserveAspectRatio="none" viewBox="0 0 99.9999 100">
  <defs><rect x="0" y="0" width="99.9999" height="100" rx="0px" ry="0px" id="id-tBXipXk0b1683174239842"></rect></defs><use class="companyName text-str" style="stroke-width:0;" xlink:href="#id-tBXipXk0b1683174239842"></use>
</svg>
</g><g opacity="1" transform="rotate(0 -28.6325 160.2386)">
<svg width="59.9999" height="44.6248" x="-28.6325" y="160.2386" version="1.1" preserveAspectRatio="none" viewBox="20 40.5 160 119">
  <g transform="matrix(1 0 0 1 0 0)" ><g><path d="M61 89.3L26.2 68.9l34.6-20.4L95.6 69 61 89.3z" data-color="1" class="icon3"></path><path d="M100.3 159.5L20 113.2l79.7-46 80.3 46.3-79.7 46z" data-color="2" class="shape"></path><path d="M114.4 100.9L62.7 70.6l51.4-30.1 51.7 30.3-51.4 30.1z" data-color="3" class="background"></path></g></g>
</svg>
</g></svg></svg>